<?xml version="1.0" encoding="UTF-8" standalone="no"?><!DOCTYPE svg PUBLIC "-//W3C//DTD SVG 1.1//EN" "http://www.w3.org/Graphics/SVG/1.1/DTD/svg11.dtd"><svg width="100%" height="100%" viewBox="0 0 682 135" version="1.1" xmlns="http://www.w3.org/2000/svg" xmlns:xlink="http://www.w3.org/1999/xlink" xml:space="preserve" xmlns:serif="http://www.serif.com/" style="fill-rule:evenodd;clip-rule:evenodd;stroke-linecap:square;stroke-miterlimit:1.5;"><g><path d="M68.772,58.815l-59.386,0l0,39.725c0,7.577 3.01,14.843 8.368,20.2c5.357,5.358 12.623,8.368 20.2,8.368l30.818,0l0,-68.293Z" style="fill:#c1a57b;stroke:#30475e;stroke-width:8px;"/><path d="M98.889,58.73l-29.692,0l0,68.293l1.346,0c15.655,0 28.346,-12.691 28.346,-28.347l0,-39.946Z" style="fill:#c1a57b;stroke:#30475e;stroke-width:8px;"/><path d="M67.653,59.118l-58.437,-0.421l-5.216,-28.935l57.966,8.496l6.305,19.412" style="fill:#c1a57b;stroke:#30475e;stroke-width:8px;stroke-linecap:round;stroke-linejoin:round;"/><path d="M70.419,57.95l28.613,0.395l3.83,-29.598l-23.195,10.115l-9.248,19.088Z" style="fill:#c1a57b;stroke:#30475e;stroke-width:8px;stroke-linecap:round;stroke-linejoin:round;"/><path d="M51.04,27.068c0,0 -11.349,-16.626 -21.004,-12.15c-8.03,3.723 -13.812,-4.836 -11.614,-8.857c3.946,-7.221 12.474,-7.731 21.896,-0.205c9.422,7.527 12.917,21.967 10.722,21.212Z" style="fill:#30475e;stroke:#30475e;stroke-width:0.85px;stroke-linecap:round;stroke-linejoin:round;"/><path d="M76.392,24.608c0,0 0.731,-12.276 9.277,-15.34c8.547,-3.064 28.152,6.13 -9.277,15.34Z" style="fill:#30475e;stroke:#30475e;stroke-width:0.85px;stroke-linecap:round;stroke-linejoin:round;"/></g><g><rect x="145.227" y="105.281" width="303.519" height="21.826" style="fill:#ececec;"/><text x="150.604px" y="114.604px" style="font-family:'BalooBhaina2-Medium', 'Baloo Bhaina 2', cursive;font-weight:500;font-size:72px;fill:#222831;stroke:#222831;stroke-width:0.24px;stroke-linecap:butt;stroke-linejoin:round;stroke-miterlimit:2;">F<tspan x="186.1px " y="114.604px ">a</tspan>nt<tspan x="290.716px " y="114.604px ">a</tspan>stic S<tspan x="493.468px 531.412px 565.108px " y="114.604px 114.604px 114.604px ">eco</tspan>nd</text></g></svg>