<?xml version="1.0" encoding="UTF-8" standalone="no"?><!DOCTYPE svg PUBLIC "-//W3C//DTD SVG 1.1//EN" "http://www.w3.org/Graphics/SVG/1.1/DTD/svg11.dtd"><svg width="100%" height="100%" viewBox="0 0 655 301" version="1.1" xmlns="http://www.w3.org/2000/svg" xmlns:xlink="http://www.w3.org/1999/xlink" xml:space="preserve" xmlns:serif="http://www.serif.com/" style="fill-rule:evenodd;clip-rule:evenodd;stroke-linecap:square;stroke-miterlimit:1.5;"><g><path d="M355.564,76.152l-77.45,0l0,60.501c0,7.576 3.01,14.842 8.367,20.2c5.357,5.357 12.624,8.367 20.2,8.367l48.883,0l0,-89.068Z" style="fill:#c1a57b;stroke:#ececec;stroke-width:8px;"/><path d="M394.844,76.041l-38.725,0l0,89.068l10.378,0c15.656,0 28.347,-12.691 28.347,-28.346l0,-60.722Z" style="fill:#c1a57b;stroke:#ececec;stroke-width:8px;"/><path d="M354.105,76.548l-76.214,-0.55l-6.802,-37.737l75.6,11.08l8.222,25.318" style="fill:#c1a57b;stroke:#ececec;stroke-width:8px;stroke-linecap:round;stroke-linejoin:round;"/><path d="M357.713,75.025l37.317,0.515l4.995,-38.602l-30.251,13.191l-12.061,24.896Z" style="fill:#c1a57b;stroke:#ececec;stroke-width:8px;stroke-linecap:round;stroke-linejoin:round;"/><path d="M332.438,34.747c0,0 -14.801,-21.683 -27.393,-15.845c-10.472,4.855 -18.013,-6.308 -15.147,-11.552c5.147,-9.418 16.268,-10.082 28.557,-0.266c12.289,9.815 16.846,28.649 13.983,27.663Z" style="fill:#ececec;"/><path d="M365.503,31.54c0,0 0.953,-16.011 12.099,-20.007c11.147,-3.997 36.716,7.995 -12.099,20.007Z" style="fill:#ececec;"/></g><rect x="0" y="271.816" width="370.975" height="28.466" style="fill:#30475e;"/><text x="10.481px" y="280.268px" style="font-family:'BalooBhaina2-Medium', 'Baloo Bhaina 2', cursive;font-weight:500;font-size:87.433px;fill:#ececec;stroke:#222831;stroke-width:0.24px;stroke-linecap:butt;stroke-linejoin:round;stroke-miterlimit:2;">F<tspan x="53.586px " y="280.268px ">a</tspan>nt<tspan x="180.626px " y="280.268px ">a</tspan>stic S<tspan x="426.837px 472.914px 513.833px " y="280.268px 280.268px 280.268px ">eco</tspan>nd</text></svg>